<mxfile host="Electron" modified="2023-09-22T08:11:25.220Z" agent="Mozilla/5.0 (Windows NT 10.0; Win64; x64) AppleWebKit/537.36 (KHTML, like Gecko) draw.io/21.6.8 Chrome/114.0.5735.289 Electron/25.5.0 Safari/537.36" etag="uHVEbD1YoghIM-DSIlz9" version="21.6.8" type="device">
  <diagram name="Page-1" id="-yEJAdqewnoO7tm1qCXs">
    <mxGraphModel dx="1036" dy="623" grid="1" gridSize="10" guides="1" tooltips="1" connect="1" arrows="1" fold="1" page="1" pageScale="1" pageWidth="850" pageHeight="1100" math="0" shadow="0">
      <root>
        <mxCell id="0" />
        <mxCell id="1" parent="0" />
        <mxCell id="sYzlG4Dx4ETgIyypyKon-1" value="" style="ellipse;html=1;shape=startState;fillColor=#000000;strokeColor=#ff0000;" parent="1" vertex="1">
          <mxGeometry x="380" y="180" width="30" height="30" as="geometry" />
        </mxCell>
        <mxCell id="sYzlG4Dx4ETgIyypyKon-2" value="" style="edgeStyle=orthogonalEdgeStyle;html=1;verticalAlign=bottom;endArrow=open;endSize=8;strokeColor=#FF0000;rounded=0;" parent="1" edge="1">
          <mxGeometry relative="1" as="geometry">
            <mxPoint x="395" y="240" as="targetPoint" />
            <mxPoint x="395" y="210" as="sourcePoint" />
          </mxGeometry>
        </mxCell>
        <mxCell id="sYzlG4Dx4ETgIyypyKon-3" value="Search Product" style="rounded=1;whiteSpace=wrap;html=1;arcSize=40;fontColor=#000000;fillColor=#ffffc0;strokeColor=#ff0000;" parent="1" vertex="1">
          <mxGeometry x="335" y="240" width="120" height="40" as="geometry" />
        </mxCell>
        <mxCell id="sYzlG4Dx4ETgIyypyKon-4" value="" style="edgeStyle=orthogonalEdgeStyle;html=1;verticalAlign=bottom;endArrow=open;endSize=8;strokeColor=#FF0000;rounded=0;" parent="1" source="sYzlG4Dx4ETgIyypyKon-3" edge="1">
          <mxGeometry relative="1" as="geometry">
            <mxPoint x="395" y="320" as="targetPoint" />
          </mxGeometry>
        </mxCell>
        <mxCell id="sYzlG4Dx4ETgIyypyKon-5" value="is found" style="rhombus;whiteSpace=wrap;html=1;fontColor=#000000;fillColor=#ffffc0;strokeColor=#ff0000;" parent="1" vertex="1">
          <mxGeometry x="355" y="319" width="80" height="40" as="geometry" />
        </mxCell>
        <mxCell id="sYzlG4Dx4ETgIyypyKon-6" value="" style="edgeStyle=orthogonalEdgeStyle;html=1;align=left;verticalAlign=bottom;endArrow=open;endSize=8;strokeColor=#FF0000;rounded=0;entryX=1;entryY=0.5;entryDx=0;entryDy=0;" parent="1" target="sYzlG4Dx4ETgIyypyKon-3" edge="1">
          <mxGeometry x="-1" relative="1" as="geometry">
            <mxPoint x="535" y="359" as="targetPoint" />
            <mxPoint x="435" y="339" as="sourcePoint" />
            <Array as="points">
              <mxPoint x="435" y="340" />
              <mxPoint x="480" y="340" />
              <mxPoint x="480" y="260" />
            </Array>
          </mxGeometry>
        </mxCell>
        <mxCell id="sYzlG4Dx4ETgIyypyKon-7" value="" style="edgeStyle=orthogonalEdgeStyle;html=1;align=left;verticalAlign=top;endArrow=open;endSize=8;strokeColor=#FF0000;rounded=0;" parent="1" source="sYzlG4Dx4ETgIyypyKon-5" edge="1">
          <mxGeometry x="-1" relative="1" as="geometry">
            <mxPoint x="395" y="420" as="targetPoint" />
          </mxGeometry>
        </mxCell>
        <mxCell id="sYzlG4Dx4ETgIyypyKon-10" value="View Product Details" style="rounded=1;whiteSpace=wrap;html=1;arcSize=40;fontColor=#000000;fillColor=#ffffc0;strokeColor=#ff0000;" parent="1" vertex="1">
          <mxGeometry x="335" y="420" width="120" height="40" as="geometry" />
        </mxCell>
        <mxCell id="sYzlG4Dx4ETgIyypyKon-11" value="" style="edgeStyle=orthogonalEdgeStyle;html=1;verticalAlign=bottom;endArrow=open;endSize=8;strokeColor=#FF0000;rounded=0;" parent="1" source="sYzlG4Dx4ETgIyypyKon-10" edge="1">
          <mxGeometry relative="1" as="geometry">
            <mxPoint x="395" y="490" as="targetPoint" />
          </mxGeometry>
        </mxCell>
        <mxCell id="sYzlG4Dx4ETgIyypyKon-17" style="edgeStyle=orthogonalEdgeStyle;rounded=0;orthogonalLoop=1;jettySize=auto;html=1;entryX=0;entryY=0.5;entryDx=0;entryDy=0;exitX=0;exitY=0.5;exitDx=0;exitDy=0;strokeColor=#FF0000;" parent="1" source="sYzlG4Dx4ETgIyypyKon-12" target="sYzlG4Dx4ETgIyypyKon-3" edge="1">
          <mxGeometry relative="1" as="geometry" />
        </mxCell>
        <mxCell id="sYzlG4Dx4ETgIyypyKon-18" value="Search Product" style="edgeLabel;html=1;align=center;verticalAlign=middle;resizable=0;points=[];" parent="sYzlG4Dx4ETgIyypyKon-17" vertex="1" connectable="0">
          <mxGeometry x="0.0411" y="1" relative="1" as="geometry">
            <mxPoint as="offset" />
          </mxGeometry>
        </mxCell>
        <mxCell id="sYzlG4Dx4ETgIyypyKon-12" value="is confirm" style="rhombus;whiteSpace=wrap;html=1;fontColor=#000000;fillColor=#ffffc0;strokeColor=#ff0000;" parent="1" vertex="1">
          <mxGeometry x="355" y="490" width="80" height="40" as="geometry" />
        </mxCell>
        <mxCell id="sYzlG4Dx4ETgIyypyKon-14" value="yes" style="edgeStyle=orthogonalEdgeStyle;html=1;align=left;verticalAlign=top;endArrow=open;endSize=8;strokeColor=#FF0000;rounded=0;" parent="1" edge="1">
          <mxGeometry x="-0.5294" y="15" relative="1" as="geometry">
            <mxPoint x="394.5" y="581" as="targetPoint" />
            <mxPoint x="394.5" y="530" as="sourcePoint" />
            <mxPoint as="offset" />
          </mxGeometry>
        </mxCell>
        <mxCell id="sYzlG4Dx4ETgIyypyKon-38" value="" style="edgeStyle=orthogonalEdgeStyle;rounded=0;orthogonalLoop=1;jettySize=auto;html=1;strokeColor=#FF0000;" parent="1" source="sYzlG4Dx4ETgIyypyKon-15" target="sYzlG4Dx4ETgIyypyKon-24" edge="1">
          <mxGeometry relative="1" as="geometry" />
        </mxCell>
        <mxCell id="sYzlG4Dx4ETgIyypyKon-15" value="Add To Cart" style="rounded=1;whiteSpace=wrap;html=1;arcSize=40;fontColor=#000000;fillColor=#ffffc0;strokeColor=#ff0000;" parent="1" vertex="1">
          <mxGeometry x="335" y="580" width="120" height="40" as="geometry" />
        </mxCell>
        <mxCell id="sYzlG4Dx4ETgIyypyKon-19" value="No" style="text;html=1;align=center;verticalAlign=middle;resizable=0;points=[];autosize=1;strokeColor=none;fillColor=none;" parent="1" vertex="1">
          <mxGeometry x="315" y="485" width="40" height="30" as="geometry" />
        </mxCell>
        <mxCell id="sYzlG4Dx4ETgIyypyKon-31" style="edgeStyle=orthogonalEdgeStyle;rounded=0;orthogonalLoop=1;jettySize=auto;html=1;exitX=0;exitY=0.5;exitDx=0;exitDy=0;entryX=-0.035;entryY=0.667;entryDx=0;entryDy=0;entryPerimeter=0;strokeColor=#FF0000;" parent="1" source="sYzlG4Dx4ETgIyypyKon-24" target="sYzlG4Dx4ETgIyypyKon-19" edge="1">
          <mxGeometry relative="1" as="geometry" />
        </mxCell>
        <mxCell id="sYzlG4Dx4ETgIyypyKon-39" value="" style="edgeStyle=orthogonalEdgeStyle;rounded=0;orthogonalLoop=1;jettySize=auto;html=1;strokeColor=#FF0000;" parent="1" source="sYzlG4Dx4ETgIyypyKon-24" target="sYzlG4Dx4ETgIyypyKon-35" edge="1">
          <mxGeometry relative="1" as="geometry" />
        </mxCell>
        <mxCell id="sYzlG4Dx4ETgIyypyKon-24" value="&lt;font style=&quot;font-size: 13px;&quot;&gt;update&lt;br&gt;&amp;nbsp;cart&lt;/font&gt;" style="rhombus;whiteSpace=wrap;html=1;fontColor=#000000;fillColor=#ffffc0;strokeColor=#ff0000;" parent="1" vertex="1">
          <mxGeometry x="352" y="660" width="85" height="50" as="geometry" />
        </mxCell>
        <mxCell id="sYzlG4Dx4ETgIyypyKon-32" value="yes" style="text;html=1;align=center;verticalAlign=middle;resizable=0;points=[];autosize=1;strokeColor=none;fillColor=none;" parent="1" vertex="1">
          <mxGeometry x="310" y="660" width="40" height="30" as="geometry" />
        </mxCell>
        <mxCell id="sYzlG4Dx4ETgIyypyKon-33" value="" style="swimlane;startSize=0;" parent="1" vertex="1">
          <mxGeometry x="260" y="159" width="290" height="731" as="geometry" />
        </mxCell>
        <mxCell id="sYzlG4Dx4ETgIyypyKon-27" value="" style="ellipse;html=1;shape=endState;fillColor=#000000;strokeColor=#ff0000;" parent="sYzlG4Dx4ETgIyypyKon-33" vertex="1">
          <mxGeometry x="120" y="671" width="30" height="30" as="geometry" />
        </mxCell>
        <mxCell id="sYzlG4Dx4ETgIyypyKon-35" value="View Cart" style="rounded=1;whiteSpace=wrap;html=1;arcSize=40;fontColor=#000000;fillColor=#ffffc0;strokeColor=#ff0000;" parent="sYzlG4Dx4ETgIyypyKon-33" vertex="1">
          <mxGeometry x="75" y="591" width="120" height="40" as="geometry" />
        </mxCell>
        <mxCell id="sYzlG4Dx4ETgIyypyKon-36" value="" style="edgeStyle=orthogonalEdgeStyle;html=1;verticalAlign=bottom;endArrow=open;endSize=8;strokeColor=#FF0000;rounded=0;" parent="sYzlG4Dx4ETgIyypyKon-33" source="sYzlG4Dx4ETgIyypyKon-35" edge="1">
          <mxGeometry relative="1" as="geometry">
            <mxPoint x="135" y="671" as="targetPoint" />
          </mxGeometry>
        </mxCell>
        <mxCell id="sYzlG4Dx4ETgIyypyKon-40" value="No" style="text;html=1;align=center;verticalAlign=middle;resizable=0;points=[];autosize=1;strokeColor=none;fillColor=none;" parent="1" vertex="1">
          <mxGeometry x="400" y="708" width="40" height="30" as="geometry" />
        </mxCell>
        <mxCell id="v5WGYH7IWQpix_EGuU7a-1" value="No" style="text;html=1;align=center;verticalAlign=middle;resizable=0;points=[];autosize=1;strokeColor=none;fillColor=none;" vertex="1" parent="1">
          <mxGeometry x="430" y="308" width="40" height="30" as="geometry" />
        </mxCell>
        <mxCell id="v5WGYH7IWQpix_EGuU7a-2" value="yes" style="text;html=1;align=center;verticalAlign=middle;resizable=0;points=[];autosize=1;strokeColor=none;fillColor=none;" vertex="1" parent="1">
          <mxGeometry x="390" y="358" width="40" height="30" as="geometry" />
        </mxCell>
      </root>
    </mxGraphModel>
  </diagram>
</mxfile>
